<?xml version="1.0" standalone="no"?>
<svg version="1.0" xmlns="http://www.w3.org/2000/svg"
 width="100" height="100" viewBox="0 0 180 197"
 preserveAspectRatio="xMidYMid meet">

<g transform="translate(0.000000,197) scale(0.100,-0.100)"
fill="#000000" stroke="none">
<path d="M577 1878 c-9 -29 -31 -96 -50 -148 -197 -540 -356 -828 -492 -884
-25 -11 -24 -12 54 -73 69 -55 85 -63 122 -63 l42 0 -7 -147 c-4 -82 -11 -186
-15 -233 -4 -47 -6 -87 -4 -90 3 -3 17 10 31 28 21 24 35 32 60 32 l32 0 -5
53 c-2 28 -7 93 -10 144 l-6 91 40 -5 c31 -4 47 0 73 18 31 22 42 24 165 24
121 0 134 -2 162 -23 33 -24 80 -29 99 -10 8 8 10 -10 4 -78 -4 -49 -7 -114
-7 -144 l0 -55 39 -6 c21 -3 42 -13 47 -20 4 -8 15 -23 23 -34 l15 -20 1 20
c0 11 -7 97 -15 190 -8 94 -15 191 -15 218 l0 47 46 0 c42 0 51 5 113 62 l68
62 -36 19 c-51 27 -67 43 -130 127 -107 145 -249 459 -379 842 -21 59 -40 108
-43 108 -3 0 -13 -24 -22 -52z m62 -200 c125 -393 245 -678 331 -785 l42 -53
-413 0 -413 0 26 28 c87 94 207 370 340 780 23 72 45 132 49 132 3 0 20 -46
38 -102z"/>
<path d="M574 1417 c-12 -40 -25 -80 -29 -89 -6 -16 -1 -18 49 -18 38 0 56 4
56 13 0 14 -44 155 -51 161 -2 3 -14 -28 -25 -67z"/>
<path d="M515 1248 c-2 -7 -13 -38 -25 -68 -11 -30 -20 -56 -20 -57 0 -2 25
-3 55 -3 l55 0 0 70 0 70 -30 0 c-17 0 -33 -6 -35 -12z"/>
<path d="M620 1185 l0 -75 38 0 c20 0 47 3 59 6 21 6 21 6 -10 75 -28 60 -35
68 -59 69 l-28 0 0 -75z"/>
<path d="M402 1000 c-24 -38 -43 -72 -43 -75 1 -4 49 -7 109 -7 l107 0 3 76 3
76 -68 0 -68 0 -43 -70z"/>
<path d="M620 995 l0 -75 121 0 121 0 -24 33 c-14 17 -35 51 -47 75 l-21 42
-75 0 -75 0 0 -75z"/>
<path d="M530 566 l0 -36 73 3 72 2 0 30 0 30 -72 3 -73 3 0 -35z"/>
<path d="M530 485 l0 -34 73 2 72 2 3 33 3 32 -75 0 -76 0 0 -35z"/>
<path d="M455 470 c-11 -18 26 -59 76 -83 l49 -25 -66 -42 c-60 -40 -73 -59
-47 -67 6 -2 41 19 78 47 l67 50 58 -50 c32 -27 65 -50 74 -50 33 0 14 31 -45
70 -49 34 -58 44 -48 56 6 8 20 14 30 14 11 0 37 12 59 26 l40 26 -25 20 c-25
19 -25 19 -60 -2 -39 -24 -78 -73 -67 -85 4 -5 -30 17 -75 48 -87 61 -89 62
-98 47z"/>
<path d="M550 223 c0 -13 -3 -14 -12 -5 -16 16 -113 15 -130 0 -7 -7 -28 -14
-46 -15 -18 0 -36 -4 -40 -7 -6 -6 23 -101 38 -126 5 -8 18 -10 33 -6 23 5 24
7 15 57 -13 72 -4 85 12 17 13 -57 14 -58 47 -58 47 0 75 17 73 43 -3 35 -1
47 10 47 6 0 10 -9 10 -20 0 -33 35 -60 79 -60 22 0 42 3 44 8 3 4 8 37 12 75
l7 67 -26 0 c-25 0 -26 -2 -26 -61 0 -81 -24 -77 -28 4 l-3 57 -34 0 c-26 0
-35 -4 -35 -17z"/>
<path d="M710 167 l0 -76 34 -6 c38 -8 90 14 100 40 21 57 -16 104 -88 112
l-46 6 0 -76z m90 -21 c0 -8 -7 -19 -15 -26 -13 -10 -15 -9 -15 12 0 14 3 28
6 31 9 9 24 -2 24 -17z"/>
<path d="M867 197 c-3 -8 -8 -39 -12 -69 -7 -52 -5 -57 15 -63 28 -9 34 -2 55
63 22 70 28 62 9 -12 -17 -64 -15 -68 33 -84 36 -12 59 3 29 20 -14 8 -15 12
-1 38 40 78 40 77 -30 99 -75 25 -91 26 -98 8z"/>
<path d="M249 175 c-51 -28 -47 -67 10 -91 33 -14 34 -17 19 -28 -20 -14 -14
-26 13 -26 18 0 49 25 49 40 0 5 -10 19 -22 30 -17 16 -20 23 -10 29 18 11 5
61 -17 61 -9 -1 -28 -7 -42 -15z"/>
</g>
</svg>
